<svg xmlns="http://www.w3.org/2000/svg" xmlns:xlink="http://www.w3.org/1999/xlink" width="187.411" height="30" viewBox="0 0 187.411 30"><defs><style>.a,.b{fill:none;}.a{clip-rule:evenodd;}.c{clip-path:url(#a);}.d{clip-path:url(#b);}.e{fill:#fffefe;}.f{clip-path:url(#c);}.g{clip-path:url(#e);}.h{fill:#ea8b2d;}.i{clip-path:url(#g);}.j{clip-path:url(#i);}.k{clip-path:url(#k);}</style><clipPath id="a"><path class="a" d="M134.663-24.228l3.817,3.7.061-.071a5.272,5.272,0,0,1,1.754-1.241,5.276,5.276,0,0,1,2.108-.429,5.6,5.6,0,0,1,2.853.734,7.535,7.535,0,0,1,2.022,1.773l4.27-3.3a10.567,10.567,0,0,0-3.529-3.085,11.66,11.66,0,0,0-5.553-1.263,12.294,12.294,0,0,0-3.25.428,11.323,11.323,0,0,0-2.926,1.261l-.206.126-.1-.191Z" transform="translate(-134.663 27.413)"/></clipPath><clipPath id="b"><path class="b" d="M-188,292.59H324.032V-432H-188Z" transform="translate(188 432)"/></clipPath><clipPath id="c"><path class="a" d="M130.622-17.268a11.42,11.42,0,0,0,3.014,10.135,11.193,11.193,0,0,0,7.985,3.242,11.622,11.622,0,0,0,5.848-1.389,11.777,11.777,0,0,0,3.64-3.33l-4.26-3.035a8.234,8.234,0,0,1-2.055,1.839,5.661,5.661,0,0,1-2.982.771,5.191,5.191,0,0,1-3.942-1.754,6.542,6.542,0,0,1-1.569-4.39,11.919,11.919,0,0,1,.167-1.541L132-20.621a1.72,1.72,0,0,0-.161.171c-.164.254-.345.537-.385.614s-.069.137-.1.208a10.04,10.04,0,0,0-.727,2.36" transform="translate(-130.426 20.621)"/></clipPath><clipPath id="e"><path class="a" d="M123.119-23.467h0l.028-.064.01-.023.02-.043,3.9-.419.538-1.467,1.415-2.655-7.521-2.8a.572.572,0,0,1,.558-.361l8.739.219,1.518-2.393a18.756,18.756,0,0,1,2.535-2.517c.092-.076.168-.079.141.059a17.842,17.842,0,0,1-1.075,3.432L132.5-30.05l4.214,7.659a.573.573,0,0,1-.064.661L130.7-27.12l-1.717,2.471L127.928-23.5l1.484,3.9,0,.013a6.91,6.91,0,0,0-2.217-1.962l-.208-1.358-1.3.439a8.923,8.923,0,0,0-2.563-1Z" transform="translate(-121.507 36.041)"/></clipPath><clipPath id="g"><path class="a" d="M8.266-6.439a7.565,7.565,0,0,0,4.792-1.42,4.689,4.689,0,0,0,1.735-3.8v-.048a3.825,3.825,0,0,0-1.586-3.287,11.731,11.731,0,0,0-4.459-1.7,9.519,9.519,0,0,1-2.358-.741,1.12,1.12,0,0,1-.674-1.07v-.048a1.1,1.1,0,0,1,.545-.951,2.429,2.429,0,0,1,1.318-.317,7.269,7.269,0,0,1,2.395.437,9.786,9.786,0,0,1,2.215,1.128L14.27-21.2a9.349,9.349,0,0,0-2.83-1.5A11.929,11.929,0,0,0,7.7-23.247a7.011,7.011,0,0,0-4.535,1.411,4.689,4.689,0,0,0-1.706,3.714v.047a3.857,3.857,0,0,0,1.723,3.431,13.02,13.02,0,0,0,4.4,1.6,8.809,8.809,0,0,1,2.306.756,1.106,1.106,0,0,1,.654,1.029v.048a1.133,1.133,0,0,1-.594,1.014,2.962,2.962,0,0,1-1.507.326,8.2,8.2,0,0,1-2.861-.517,9.537,9.537,0,0,1-2.5-1.4L.749-9.018A10.3,10.3,0,0,0,4.036-7.141,12.718,12.718,0,0,0,8.266-6.439ZM45.641-13.48H47.7l-1.912-4.874L41.236-6.725H36.822L43.736-23.08h4.182L54.83-6.725H50.353L49.029-10.1h-4.6ZM17.425-6.725h4.117V-16.7l4.477,6.841,4.5-6.889V-6.725h4.188V-22.961H30.145l-4.079,6.618-4.079-6.618H17.425Zm39.521,0h4.212v-5.038h2.326l3.35,5.038h4.84l-3.893-5.688L68-12.507a5.459,5.459,0,0,0,2.462-1.949,5.242,5.242,0,0,0,.839-2.978v-.048a5.919,5.919,0,0,0-.358-2.124,4.431,4.431,0,0,0-1.055-1.607l0,0a5.323,5.323,0,0,0-2.161-1.3,9.867,9.867,0,0,0-3.116-.442H56.945Zm4.212-8.451v-4.192h3.217a3.144,3.144,0,0,1,1.972.557,1.955,1.955,0,0,1,.723,1.615v.048a1.969,1.969,0,0,1-.734,1.6,3.06,3.06,0,0,1-1.938.567H61.157ZM78.1-6.725h4.212v-12.6H87.3v-3.641H73.105v3.641H78.1Z" transform="translate(-0.749 23.247)"/></clipPath><clipPath id="i"><path class="a" d="M201.627-10.474a4.23,4.23,0,0,1-4.2-4.371v-.046a4.153,4.153,0,0,1,4.155-4.325,4.236,4.236,0,0,1,4.226,4.371v.046A4.158,4.158,0,0,1,201.627-10.474Zm-.047,4.047a8.55,8.55,0,0,0,8.874-8.418v-.046a8.472,8.472,0,0,0-8.827-8.372,8.55,8.55,0,0,0-8.874,8.418v.046A8.471,8.471,0,0,0,201.58-6.427Zm-20.59-8.741v-3.885h2.982c1.526,0,2.465.648,2.465,1.919v.047c0,1.179-.892,1.919-2.441,1.919Zm-4.554,8.418h4.554v-4.9h2l3.31,4.9h5.259l-3.92-5.643a5.121,5.121,0,0,0,3.38-4.972v-.046a4.979,4.979,0,0,0-1.455-3.77c-1.1-1.11-2.841-1.757-5.353-1.757h-7.771Zm-11.246-8.14v-4.278h2.137c1.643,0,2.63.74,2.63,2.127V-17c0,1.272-.986,2.1-2.606,2.1Zm-4.554,8.14h4.554v-4.625h2.254c4.085,0,7.067-2.012,7.067-5.828v-.047c0-3.584-2.677-5.689-6.831-5.689h-7.043Z" transform="translate(-160.637 23.263)"/></clipPath><clipPath id="k"><path class="a" d="M118.209-4.855a14.952,14.952,0,0,0,4.966-.831,14.623,14.623,0,0,0,4.188-2.3,13.535,13.535,0,0,1-2.618-9.738h-8.727v4.043h7.142a4.37,4.37,0,0,1-.12.846,3.875,3.875,0,0,1-1.363,2.121,5.168,5.168,0,0,1-3.216,1.051A6.129,6.129,0,0,1,114-11.445a6.855,6.855,0,0,1-.9-7.9,5.926,5.926,0,0,1,2.325-2.306,7.941,7.941,0,0,1,2.45-.776,8.324,8.324,0,0,1,3.145.151c.613-1.4,1.5-2.906,2.235-4.293a11.6,11.6,0,0,0-4.636-.963,13.813,13.813,0,0,0-5.209,1.011,11.166,11.166,0,0,0-5.088,4.133,11.286,11.286,0,0,0-1.881,6.3v.063a10.833,10.833,0,0,0,3.316,8,12.112,12.112,0,0,0,8.454,3.168" transform="translate(-106.438 27.537)"/></clipPath></defs><g transform="translate(-0.749 36.041)"><g class="c" transform="translate(115.989 -28.617)"><g class="d" transform="translate(-277.67 -348.17)"><path class="e" d="M129.663-32.414h25.49v16.257h-25.49Z" transform="translate(143.705 376.281)"/></g></g><g class="f" transform="translate(112.344 -22.771)"><g class="d" transform="translate(-274.025 -354.016)"><path class="e" d="M125.426-25.621h29.288V-.286H125.426Z" transform="translate(144.295 375.334)"/></g></g><g class="g" transform="translate(104.668 -36.041)"><g class="d" transform="translate(-266.348 -340.746)"><path class="h" d="M116.507-41.041h23.885V-15.98H116.507Z" transform="translate(145.539 377.484)"/></g></g><g class="i" transform="translate(0.749 -25.031)"><g class="d" transform="translate(-162.429 -351.756)"><path class="e" d="M-4.251-28.247H90.9V-2.834H-4.251Z" transform="translate(162.378 375.7)"/></g></g><g class="j" transform="translate(138.342 -25.044)"><g class="d" transform="translate(-300.022 -351.743)"><path class="e" d="M155.637-28.263H214.06V-2.822H155.637Z" transform="translate(140.083 375.702)"/></g></g><g class="k" transform="translate(91.701 -28.723)"><g class="d" transform="translate(-253.381 -348.064)"><path class="e" d="M101.438-32.537h29.53V-1.25h-29.53Z" transform="translate(147.64 376.298)"/></g></g></g></svg>